<svg width="699" height="75" viewBox="0 0 699 75" fill="none" xmlns="http://www.w3.org/2000/svg">
<rect x="0.5" y="0.5" width="698" height="74" rx="9.5" stroke="white" stroke-opacity="0.09"/>
<path d="M35.4346 28.1758C33.9502 28.1758 32.771 27.6851 31.897 26.7036C31.0278 25.7222 30.5933 24.3916 30.5933 22.7119C30.5933 21.042 31.0303 19.7163 31.9043 18.7349C32.7783 17.7485 33.9551 17.2554 35.4346 17.2554C36.6357 17.2554 37.6489 17.5947 38.4741 18.2734C39.2993 18.9473 39.7803 19.8335 39.917 20.9321H38.291C38.1445 20.2534 37.8101 19.7114 37.2876 19.3062C36.77 18.896 36.1523 18.6909 35.4346 18.6909C34.4727 18.6909 33.7036 19.0571 33.1274 19.7896C32.5562 20.5171 32.2705 21.4912 32.2705 22.7119C32.2705 23.9473 32.5562 24.9287 33.1274 25.6562C33.6987 26.3789 34.4702 26.7402 35.4419 26.7402C36.1743 26.7402 36.7896 26.562 37.2876 26.2056C37.7905 25.8491 38.125 25.3511 38.291 24.7114H39.9243C39.7241 25.8052 39.2285 26.6572 38.4375 27.2676C37.6514 27.873 36.6504 28.1758 35.4346 28.1758ZM47.1826 27.0771C46.5186 27.79 45.6323 28.1465 44.5239 28.1465C43.4155 28.1465 42.5293 27.79 41.8652 27.0771C41.2012 26.3594 40.8691 25.3828 40.8691 24.1475C40.8691 22.917 41.2012 21.9453 41.8652 21.2324C42.5293 20.5146 43.4155 20.1558 44.5239 20.1558C45.6323 20.1558 46.5186 20.5146 47.1826 21.2324C47.8467 21.9453 48.1787 22.917 48.1787 24.1475C48.1787 25.3828 47.8467 26.3594 47.1826 27.0771ZM44.5239 26.8428C45.1538 26.8428 45.6519 26.606 46.0181 26.1323C46.3843 25.6587 46.5674 24.9971 46.5674 24.1475C46.5674 23.3027 46.3818 22.6436 46.0107 22.1699C45.6445 21.6963 45.1489 21.4595 44.5239 21.4595C43.8989 21.4595 43.4009 21.6963 43.0298 22.1699C42.6636 22.6436 42.4805 23.3027 42.4805 24.1475C42.4805 24.9971 42.6636 25.6587 43.0298 26.1323C43.4009 26.606 43.8989 26.8428 44.5239 26.8428ZM49.4019 28V20.2949H50.9106V21.584H50.9473C51.1621 21.1348 51.4746 20.7856 51.8848 20.5366C52.2949 20.2876 52.7905 20.1631 53.3716 20.1631C54.2163 20.1631 54.873 20.417 55.3418 20.9248C55.8105 21.4277 56.0449 22.1235 56.0449 23.0122V28H54.4556V23.3198C54.4556 22.7339 54.3164 22.2896 54.0381 21.9868C53.7646 21.6792 53.3569 21.5254 52.8149 21.5254C52.2583 21.5254 51.814 21.7061 51.4819 22.0674C51.1499 22.4287 50.9839 22.9097 50.9839 23.5103V28H49.4019ZM58.0371 18.4712H59.6265V20.2949H61.0913V21.5474H59.6265V25.7954C59.6265 26.1274 59.7021 26.3716 59.8535 26.5278C60.0049 26.6841 60.2417 26.7622 60.564 26.7622C60.7983 26.7622 60.9717 26.75 61.084 26.7256V27.978C60.8887 28.0269 60.5957 28.0513 60.2051 28.0513C59.4287 28.0513 58.8721 27.8926 58.5352 27.5752C58.2031 27.2529 58.0371 26.7183 58.0371 25.9712V21.5474H56.9165V20.2949H58.0371V18.4712ZM62.395 28V20.2949H63.9038V21.606H63.9404C64.0674 21.1567 64.2944 20.8052 64.6216 20.5513C64.9487 20.2974 65.3394 20.1704 65.7935 20.1704C65.9448 20.1704 66.1255 20.1899 66.3354 20.229V21.7012C66.1938 21.6426 65.957 21.6133 65.625 21.6133C65.1172 21.6133 64.7144 21.772 64.4165 22.0894C64.1235 22.4067 63.9771 22.8389 63.9771 23.3857V28H62.395ZM69.8511 26.8794C70.4077 26.8794 70.874 26.7109 71.25 26.374C71.6309 26.0322 71.8213 25.6123 71.8213 25.1143V24.5063L69.9243 24.6235C69.4507 24.6577 69.0845 24.7749 68.8257 24.9751C68.5718 25.1704 68.4448 25.4341 68.4448 25.7661C68.4448 26.103 68.5718 26.374 68.8257 26.5791C69.0845 26.7793 69.4263 26.8794 69.8511 26.8794ZM69.4116 28.1318C68.6548 28.1318 68.0371 27.917 67.5586 27.4873C67.085 27.0576 66.8481 26.4985 66.8481 25.8101C66.8481 25.1362 67.0972 24.6016 67.5952 24.2061C68.0933 23.8057 68.7988 23.5811 69.7119 23.5322L71.8213 23.4077V22.8145C71.8213 22.3848 71.6846 22.0503 71.4111 21.811C71.1377 21.5669 70.7593 21.4448 70.2759 21.4448C69.8267 21.4448 69.4604 21.5449 69.1772 21.7451C68.8989 21.9453 68.7231 22.2212 68.6499 22.5728H67.1558C67.1997 21.8599 67.5073 21.2788 68.0786 20.8296C68.6499 20.3804 69.4019 20.1558 70.3345 20.1558C71.2671 20.1558 72.0093 20.3853 72.561 20.8442C73.1177 21.3032 73.396 21.9185 73.396 22.6899V28H71.8799V26.7329H71.8433C71.6235 27.1577 71.2891 27.4971 70.8398 27.751C70.3955 28.0049 69.9194 28.1318 69.4116 28.1318ZM81.5479 22.9463H80.0391C79.9561 22.5117 79.7559 22.1577 79.4385 21.8843C79.126 21.6108 78.7231 21.4741 78.23 21.4741C77.6147 21.4741 77.1216 21.7158 76.7505 22.1992C76.3843 22.6777 76.2012 23.3271 76.2012 24.1475C76.2012 24.9824 76.3843 25.6367 76.7505 26.1104C77.1216 26.584 77.6196 26.8208 78.2446 26.8208C78.728 26.8208 79.1235 26.6963 79.4312 26.4473C79.7437 26.1934 79.9463 25.8418 80.0391 25.3926H81.5625C81.4795 26.2178 81.1328 26.8843 80.5225 27.3921C79.917 27.895 79.1528 28.1465 78.23 28.1465C77.1216 28.1465 76.2378 27.79 75.5786 27.0771C74.9194 26.3594 74.5898 25.3828 74.5898 24.1475C74.5898 22.9268 74.9194 21.9575 75.5786 21.2397C76.2378 20.5171 77.1167 20.1558 78.2153 20.1558C79.1724 20.1558 79.9487 20.4243 80.5444 20.9614C81.1401 21.4937 81.4746 22.1553 81.5479 22.9463ZM83.1445 18.4712H84.7339V20.2949H86.1987V21.5474H84.7339V25.7954C84.7339 26.1274 84.8096 26.3716 84.9609 26.5278C85.1123 26.6841 85.3491 26.7622 85.6714 26.7622C85.9058 26.7622 86.0791 26.75 86.1914 26.7256V27.978C85.9961 28.0269 85.7031 28.0513 85.3125 28.0513C84.5361 28.0513 83.9795 27.8926 83.6426 27.5752C83.3105 27.2529 83.1445 26.7183 83.1445 25.9712V21.5474H82.0239V20.2949H83.1445V18.4712ZM93.2446 26.8794C93.8013 26.8794 94.2676 26.7109 94.6436 26.374C95.0244 26.0322 95.2148 25.6123 95.2148 25.1143V24.5063L93.3179 24.6235C92.8442 24.6577 92.478 24.7749 92.2192 24.9751C91.9653 25.1704 91.8384 25.4341 91.8384 25.7661C91.8384 26.103 91.9653 26.374 92.2192 26.5791C92.478 26.7793 92.8198 26.8794 93.2446 26.8794ZM92.8052 28.1318C92.0483 28.1318 91.4307 27.917 90.9521 27.4873C90.4785 27.0576 90.2417 26.4985 90.2417 25.8101C90.2417 25.1362 90.4907 24.6016 90.9888 24.2061C91.4868 23.8057 92.1924 23.5811 93.1055 23.5322L95.2148 23.4077V22.8145C95.2148 22.3848 95.0781 22.0503 94.8047 21.811C94.5312 21.5669 94.1528 21.4448 93.6694 21.4448C93.2202 21.4448 92.854 21.5449 92.5708 21.7451C92.2925 21.9453 92.1167 22.2212 92.0435 22.5728H90.5493C90.5933 21.8599 90.9009 21.2788 91.4722 20.8296C92.0435 20.3804 92.7954 20.1558 93.728 20.1558C94.6606 20.1558 95.4028 20.3853 95.9546 20.8442C96.5112 21.3032 96.7896 21.9185 96.7896 22.6899V28H95.2734V26.7329H95.2368C95.0171 27.1577 94.6826 27.4971 94.2334 27.751C93.7891 28.0049 93.313 28.1318 92.8052 28.1318ZM101.221 28.1318C100.244 28.1318 99.4604 27.7705 98.8696 27.0479C98.2788 26.3252 97.9834 25.3584 97.9834 24.1475C97.9834 22.9365 98.2764 21.9722 98.8623 21.2544C99.4531 20.5317 100.234 20.1704 101.206 20.1704C101.748 20.1704 102.231 20.2974 102.656 20.5513C103.081 20.8003 103.403 21.1421 103.623 21.5767H103.652V17.4312H105.242V28H103.704V26.689H103.674C103.445 27.1382 103.115 27.4922 102.686 27.751C102.261 28.0049 101.772 28.1318 101.221 28.1318ZM101.638 21.5034C101.013 21.5034 100.518 21.7427 100.151 22.2212C99.7852 22.6948 99.6021 23.3369 99.6021 24.1475C99.6021 24.9629 99.7852 25.6074 100.151 26.0811C100.518 26.5547 101.013 26.7915 101.638 26.7915C102.249 26.7915 102.739 26.5522 103.11 26.0737C103.481 25.5903 103.667 24.9482 103.667 24.1475C103.667 23.3516 103.481 22.7119 103.11 22.2285C102.739 21.7451 102.249 21.5034 101.638 21.5034ZM109.761 28.1318C108.784 28.1318 108 27.7705 107.41 27.0479C106.819 26.3252 106.523 25.3584 106.523 24.1475C106.523 22.9365 106.816 21.9722 107.402 21.2544C107.993 20.5317 108.774 20.1704 109.746 20.1704C110.288 20.1704 110.771 20.2974 111.196 20.5513C111.621 20.8003 111.943 21.1421 112.163 21.5767H112.192V17.4312H113.782V28H112.244V26.689H112.214C111.985 27.1382 111.655 27.4922 111.226 27.751C110.801 28.0049 110.312 28.1318 109.761 28.1318ZM110.178 21.5034C109.553 21.5034 109.058 21.7427 108.691 22.2212C108.325 22.6948 108.142 23.3369 108.142 24.1475C108.142 24.9629 108.325 25.6074 108.691 26.0811C109.058 26.5547 109.553 26.7915 110.178 26.7915C110.789 26.7915 111.279 26.5522 111.65 26.0737C112.021 25.5903 112.207 24.9482 112.207 24.1475C112.207 23.3516 112.021 22.7119 111.65 22.2285C111.279 21.7451 110.789 21.5034 110.178 21.5034ZM115.408 28V20.2949H116.917V21.606H116.953C117.08 21.1567 117.307 20.8052 117.634 20.5513C117.961 20.2974 118.352 20.1704 118.806 20.1704C118.958 20.1704 119.138 20.1899 119.348 20.229V21.7012C119.207 21.6426 118.97 21.6133 118.638 21.6133C118.13 21.6133 117.727 21.772 117.429 22.0894C117.136 22.4067 116.99 22.8389 116.99 23.3857V28H115.408ZM124.556 21.9868C124.209 21.6157 123.762 21.4302 123.215 21.4302C122.668 21.4302 122.214 21.6182 121.853 21.9941C121.492 22.3652 121.292 22.8462 121.252 23.437H125.105C125.085 22.8413 124.902 22.3579 124.556 21.9868ZM125.098 25.7368H126.599C126.487 26.4448 126.125 27.0234 125.515 27.4727C124.905 27.9219 124.16 28.1465 123.281 28.1465C122.153 28.1465 121.265 27.7925 120.615 27.0845C119.971 26.3716 119.648 25.4048 119.648 24.1841C119.648 22.9731 119.971 21.999 120.615 21.2617C121.265 20.5244 122.131 20.1558 123.215 20.1558C124.28 20.1558 125.125 20.5049 125.75 21.2031C126.375 21.8965 126.687 22.8291 126.687 24.001V24.543H121.245V24.6382C121.245 25.312 121.433 25.8516 121.809 26.2568C122.185 26.6621 122.688 26.8647 123.318 26.8647C123.762 26.8647 124.143 26.7622 124.46 26.5571C124.778 26.3521 124.99 26.0786 125.098 25.7368ZM127.778 22.4775C127.778 21.7891 128.057 21.23 128.613 20.8003C129.17 20.3706 129.897 20.1558 130.796 20.1558C131.65 20.1558 132.351 20.373 132.898 20.8076C133.45 21.2373 133.738 21.7964 133.762 22.4849H132.275C132.236 22.1333 132.083 21.8574 131.814 21.6572C131.545 21.457 131.191 21.3569 130.752 21.3569C130.322 21.3569 129.976 21.4521 129.712 21.6426C129.453 21.833 129.324 22.0796 129.324 22.3823C129.324 22.8511 129.717 23.1831 130.503 23.3784L131.799 23.6787C132.576 23.8643 133.125 24.1182 133.447 24.4404C133.774 24.7578 133.938 25.2021 133.938 25.7734C133.938 26.4766 133.64 27.0479 133.044 27.4873C132.454 27.9268 131.685 28.1465 130.737 28.1465C129.834 28.1465 129.097 27.9316 128.525 27.502C127.959 27.0723 127.644 26.501 127.581 25.7881H129.148C129.211 26.1592 129.385 26.4448 129.668 26.645C129.951 26.8403 130.332 26.938 130.811 26.938C131.284 26.938 131.658 26.8477 131.931 26.667C132.209 26.4814 132.349 26.2324 132.349 25.9199C132.349 25.6709 132.266 25.4731 132.1 25.3267C131.934 25.1802 131.65 25.0557 131.25 24.9531L129.873 24.6162C128.477 24.2793 127.778 23.5664 127.778 22.4775ZM135.029 22.4775C135.029 21.7891 135.308 21.23 135.864 20.8003C136.421 20.3706 137.148 20.1558 138.047 20.1558C138.901 20.1558 139.602 20.373 140.149 20.8076C140.701 21.2373 140.989 21.7964 141.013 22.4849H139.526C139.487 22.1333 139.333 21.8574 139.065 21.6572C138.796 21.457 138.442 21.3569 138.003 21.3569C137.573 21.3569 137.227 21.4521 136.963 21.6426C136.704 21.833 136.575 22.0796 136.575 22.3823C136.575 22.8511 136.968 23.1831 137.754 23.3784L139.05 23.6787C139.827 23.8643 140.376 24.1182 140.698 24.4404C141.025 24.7578 141.189 25.2021 141.189 25.7734C141.189 26.4766 140.891 27.0479 140.295 27.4873C139.705 27.9268 138.936 28.1465 137.988 28.1465C137.085 28.1465 136.348 27.9316 135.776 27.502C135.21 27.0723 134.895 26.501 134.832 25.7881H136.399C136.462 26.1592 136.636 26.4448 136.919 26.645C137.202 26.8403 137.583 26.938 138.062 26.938C138.535 26.938 138.909 26.8477 139.182 26.667C139.46 26.4814 139.6 26.2324 139.6 25.9199C139.6 25.6709 139.517 25.4731 139.351 25.3267C139.185 25.1802 138.901 25.0557 138.501 24.9531L137.124 24.6162C135.728 24.2793 135.029 23.5664 135.029 22.4775ZM144.287 27.8022C144.102 27.9878 143.875 28.0806 143.606 28.0806C143.337 28.0806 143.11 27.9878 142.925 27.8022C142.739 27.6167 142.646 27.3896 142.646 27.1211C142.646 26.8525 142.739 26.6255 142.925 26.4399C143.11 26.2544 143.337 26.1616 143.606 26.1616C143.875 26.1616 144.102 26.2544 144.287 26.4399C144.473 26.6255 144.565 26.8525 144.565 27.1211C144.565 27.3896 144.473 27.6167 144.287 27.8022ZM144.287 22.4629C144.102 22.6484 143.875 22.7412 143.606 22.7412C143.337 22.7412 143.11 22.6484 142.925 22.4629C142.739 22.2773 142.646 22.0503 142.646 21.7817C142.646 21.5132 142.739 21.2861 142.925 21.1006C143.11 20.915 143.337 20.8223 143.606 20.8223C143.875 20.8223 144.102 20.915 144.287 21.1006C144.473 21.2861 144.565 21.5132 144.565 21.7817C144.565 22.0503 144.473 22.2773 144.287 22.4629Z" fill="white" fill-opacity="0.2"/>
<path d="M37.5928 56.293C35.5501 56.293 33.9551 55.4792 32.8076 53.8516C31.6683 52.2158 31.0986 49.9941 31.0986 47.1865C31.0986 44.4033 31.6724 42.1938 32.8198 40.5581C33.9754 38.9142 35.5664 38.0923 37.5928 38.0923C39.6191 38.0923 41.202 38.9102 42.3413 40.5459C43.4888 42.1735 44.0625 44.383 44.0625 47.1743C44.0625 49.9819 43.4928 52.2036 42.3535 53.8394C41.2142 55.4751 39.6273 56.293 37.5928 56.293ZM34.4312 52.4478C35.1799 53.7336 36.2337 54.3765 37.5928 54.3765C38.9518 54.3765 40.0016 53.7376 40.7422 52.46C41.4827 51.1742 41.853 49.4163 41.853 47.1865C41.853 44.9893 41.4787 43.2477 40.73 41.9619C39.9813 40.668 38.9355 40.021 37.5928 40.021C36.25 40.021 35.2002 40.668 34.4434 41.9619C33.6865 43.2559 33.3081 44.9933 33.3081 47.1743C33.3081 49.4041 33.6825 51.1619 34.4312 52.4478ZM51.0327 51.166H50.9839L47.9199 56H45.564L49.8853 49.6523L45.6372 43.3047H48.0054L51.0571 48.0654H51.106L54.1211 43.3047H56.4893L52.2046 49.5669L56.4282 56H54.0723L51.0327 51.166ZM63.1299 44.9282C62.1452 44.9282 61.3273 45.27 60.6763 45.9536C60.0334 46.6291 59.6794 47.4998 59.6143 48.5659H66.5112C66.4868 47.4917 66.1654 46.6169 65.5469 45.9414C64.9284 45.266 64.1227 44.9282 63.1299 44.9282ZM66.4624 52.3623H68.5498C68.3626 53.4854 67.7767 54.409 66.792 55.1333C65.8154 55.8576 64.6395 56.2197 63.2642 56.2197C61.4494 56.2197 60.0212 55.6338 58.9795 54.4619C57.9378 53.29 57.417 51.7031 57.417 49.7012C57.417 47.7155 57.9378 46.1164 58.9795 44.9038C60.0293 43.6912 61.425 43.085 63.1665 43.085C64.8755 43.085 66.2264 43.6587 67.2192 44.8062C68.2121 45.9536 68.7085 47.4917 68.7085 49.4204V50.2261H59.6021V50.3481C59.6021 51.5688 59.9357 52.5454 60.603 53.2778C61.2703 54.0103 62.1737 54.3765 63.313 54.3765C64.1105 54.3765 64.79 54.1934 65.3516 53.8271C65.9131 53.4609 66.2834 52.9727 66.4624 52.3623ZM79.2798 56V52.3379H70.4297V50.3481C71.1865 48.9403 72.1468 47.333 73.3105 45.5264C74.4824 43.7197 76.0978 41.3394 78.1567 38.3853H81.4038V50.4092H83.894V52.3379H81.4038V56H79.2798ZM72.6025 50.3604V50.4092H79.2798V40.2163H79.2432C76.1589 44.619 73.9453 48.0003 72.6025 50.3604ZM93.5742 56.293C91.141 56.293 89.2082 55.4751 87.7759 53.8394C86.3517 52.1955 85.6396 49.9779 85.6396 47.1865C85.6396 44.4196 86.3599 42.2142 87.8003 40.5703C89.2407 38.9183 91.1654 38.0923 93.5742 38.0923C95.4948 38.0923 97.1224 38.6294 98.457 39.7036C99.7998 40.7697 100.61 42.1816 100.886 43.9395H98.6646C98.3797 42.7839 97.7734 41.8602 96.8457 41.1685C95.918 40.4686 94.8275 40.1187 93.5742 40.1187C91.8571 40.1187 90.4818 40.7616 89.4482 42.0474C88.4147 43.3332 87.8979 45.0462 87.8979 47.1865C87.8979 49.3512 88.4106 51.0724 89.436 52.3501C90.4614 53.6278 91.8449 54.2666 93.5864 54.2666C94.8804 54.2666 95.9709 53.9696 96.8579 53.3755C97.745 52.7814 98.3472 51.9473 98.6646 50.873H100.886C100.479 52.6146 99.6452 53.9533 98.3838 54.8892C97.1224 55.825 95.5192 56.293 93.5742 56.293ZM109.578 56.3052C108.259 56.3052 107.096 55.9634 106.086 55.2798C105.077 54.5881 104.3 53.6074 103.755 52.3379C103.177 51.0033 102.888 49.3879 102.888 47.4917C102.888 44.5213 103.486 42.2101 104.683 40.5581C105.887 38.9061 107.568 38.0801 109.724 38.0801C111.222 38.0801 112.499 38.4951 113.557 39.3252C114.615 40.1553 115.286 41.262 115.571 42.6455H113.337C113.101 41.848 112.654 41.2132 111.995 40.7412C111.335 40.2611 110.57 40.021 109.7 40.021C108.227 40.021 107.087 40.6517 106.282 41.9131C105.476 43.1745 105.053 44.9771 105.012 47.3208H105.049C105.448 46.4582 106.095 45.7664 106.99 45.2456C107.885 44.7248 108.878 44.4644 109.968 44.4644C111.645 44.4644 113.036 45.0177 114.143 46.1245C115.258 47.2313 115.815 48.6188 115.815 50.2871C115.815 52.0286 115.225 53.4691 114.045 54.6084C112.874 55.7396 111.384 56.3052 109.578 56.3052ZM106.697 53.1802C107.478 53.9614 108.43 54.3521 109.553 54.3521C110.676 54.3521 111.628 53.9655 112.41 53.1924C113.191 52.4193 113.582 51.4753 113.582 50.3604C113.582 49.2048 113.207 48.2567 112.458 47.5161C111.71 46.7674 110.754 46.3931 109.59 46.3931C108.426 46.3931 107.458 46.7633 106.685 47.5039C105.92 48.2445 105.537 49.1763 105.537 50.2993C105.537 51.4305 105.924 52.3908 106.697 53.1802ZM129.365 54.0225V56H118.452V38.3853H129.365V40.3628H120.649V46.0146H128.914V47.9678H120.649V54.0225H129.365ZM133.003 56L140.974 40.3872V40.3384H131.489V38.3853H143.147V40.4238L135.31 56H133.003ZM149.067 54.4131C150.068 54.4131 150.907 54.1038 151.582 53.4854C152.266 52.8587 152.607 52.0897 152.607 51.1782V50.1406L149.214 50.3481C148.359 50.4051 147.696 50.6126 147.224 50.9707C146.76 51.3288 146.528 51.8089 146.528 52.4111C146.528 53.0133 146.76 53.4976 147.224 53.8638C147.688 54.23 148.302 54.4131 149.067 54.4131ZM148.591 56.2197C147.33 56.2197 146.309 55.8698 145.527 55.1699C144.754 54.4701 144.368 53.5505 144.368 52.4111C144.368 51.3206 144.766 50.4499 145.564 49.7988C146.37 49.1478 147.505 48.7816 148.97 48.7002L152.607 48.4927V47.4307C152.607 46.6576 152.363 46.0513 151.875 45.6118C151.387 45.1724 150.703 44.9526 149.824 44.9526C149.019 44.9526 148.363 45.1317 147.859 45.4897C147.354 45.8397 147.033 46.332 146.895 46.9668H144.844C144.917 45.8356 145.405 44.9079 146.309 44.1836C147.22 43.4512 148.408 43.085 149.873 43.085C151.362 43.085 152.542 43.4593 153.413 44.208C154.292 44.9567 154.731 45.9618 154.731 47.2231V56H152.717V53.8149H152.668C152.286 54.5392 151.724 55.1211 150.984 55.5605C150.243 56 149.446 56.2197 148.591 56.2197ZM163.643 56.293C161.6 56.293 160.005 55.4792 158.857 53.8516C157.718 52.2158 157.148 49.9941 157.148 47.1865C157.148 44.4033 157.722 42.1938 158.87 40.5581C160.025 38.9142 161.616 38.0923 163.643 38.0923C165.669 38.0923 167.252 38.9102 168.391 40.5459C169.539 42.1735 170.112 44.383 170.112 47.1743C170.112 49.9819 169.543 52.2036 168.403 53.8394C167.264 55.4751 165.677 56.293 163.643 56.293ZM160.481 52.4478C161.23 53.7336 162.284 54.3765 163.643 54.3765C165.002 54.3765 166.051 53.7376 166.792 52.46C167.533 51.1742 167.903 49.4163 167.903 47.1865C167.903 44.9893 167.528 43.2477 166.78 41.9619C166.031 40.668 164.985 40.021 163.643 40.021C162.3 40.021 161.25 40.668 160.493 41.9619C159.736 43.2559 159.358 44.9933 159.358 47.1743C159.358 49.4041 159.732 51.1619 160.481 52.4478ZM175.117 56H172.92V38.3853H183.613V40.3628H175.117V46.4175H182.917V48.3706H175.117V56ZM192.219 56.3052C190.901 56.3052 189.737 55.9634 188.728 55.2798C187.719 54.5881 186.942 53.6074 186.396 52.3379C185.819 51.0033 185.53 49.3879 185.53 47.4917C185.53 44.5213 186.128 42.2101 187.324 40.5581C188.529 38.9061 190.209 38.0801 192.366 38.0801C193.863 38.0801 195.141 38.4951 196.199 39.3252C197.257 40.1553 197.928 41.262 198.213 42.6455H195.979C195.743 41.848 195.295 41.2132 194.636 40.7412C193.977 40.2611 193.212 40.021 192.341 40.021C190.868 40.021 189.729 40.6517 188.923 41.9131C188.118 43.1745 187.694 44.9771 187.654 47.3208H187.69C188.089 46.4582 188.736 45.7664 189.631 45.2456C190.527 44.7248 191.519 44.4644 192.61 44.4644C194.286 44.4644 195.678 45.0177 196.785 46.1245C197.9 47.2313 198.457 48.6188 198.457 50.2871C198.457 52.0286 197.867 53.4691 196.687 54.6084C195.515 55.7396 194.026 56.3052 192.219 56.3052ZM189.338 53.1802C190.12 53.9614 191.072 54.3521 192.195 54.3521C193.318 54.3521 194.27 53.9655 195.051 53.1924C195.833 52.4193 196.223 51.4753 196.223 50.3604C196.223 49.2048 195.849 48.2567 195.1 47.5161C194.351 46.7674 193.395 46.3931 192.231 46.3931C191.068 46.3931 190.099 46.7633 189.326 47.5039C188.561 48.2445 188.179 49.1763 188.179 50.2993C188.179 51.4305 188.565 52.3908 189.338 53.1802ZM206.416 56.293C204.919 56.293 203.637 55.8779 202.571 55.0479C201.505 54.2178 200.837 53.111 200.569 51.7275H202.803C203.039 52.5251 203.486 53.168 204.146 53.6562C204.805 54.1364 205.57 54.3765 206.44 54.3765C207.905 54.3765 209.041 53.7417 209.846 52.4722C210.66 51.1945 211.083 49.3838 211.116 47.04H211.104H211.079C210.705 47.9108 210.07 48.6107 209.175 49.1396C208.288 49.6605 207.283 49.9209 206.16 49.9209C204.483 49.9209 203.088 49.3675 201.973 48.2607C200.866 47.154 200.312 45.7664 200.312 44.0981C200.312 42.3566 200.898 40.9202 202.07 39.7891C203.25 38.6497 204.744 38.0801 206.55 38.0801C207.877 38.0801 209.045 38.4259 210.054 39.1177C211.063 39.8013 211.836 40.7738 212.373 42.0352C212.951 43.3698 213.24 44.9893 213.24 46.8936C213.24 49.8639 212.642 52.1751 211.445 53.8271C210.249 55.471 208.573 56.293 206.416 56.293ZM206.538 47.9922C207.702 47.9922 208.67 47.6219 209.443 46.8813C210.216 46.1408 210.603 45.209 210.603 44.0859C210.603 42.9548 210.212 42.0026 209.431 41.2295C208.658 40.4482 207.706 40.0576 206.575 40.0576C205.444 40.0576 204.487 40.4442 203.706 41.2173C202.925 41.9823 202.534 42.9181 202.534 44.0249C202.534 45.1724 202.913 46.1204 203.669 46.8691C204.426 47.6178 205.382 47.9922 206.538 47.9922ZM222.151 56.3052C220.833 56.3052 219.669 55.9634 218.66 55.2798C217.651 54.5881 216.873 53.6074 216.328 52.3379C215.75 51.0033 215.461 49.3879 215.461 47.4917C215.461 44.5213 216.06 42.2101 217.256 40.5581C218.46 38.9061 220.141 38.0801 222.297 38.0801C223.795 38.0801 225.072 38.4951 226.13 39.3252C227.188 40.1553 227.86 41.262 228.145 42.6455H225.911C225.675 41.848 225.227 41.2132 224.568 40.7412C223.909 40.2611 223.144 40.021 222.273 40.021C220.8 40.021 219.661 40.6517 218.855 41.9131C218.049 43.1745 217.626 44.9771 217.585 47.3208H217.622C218.021 46.4582 218.668 45.7664 219.563 45.2456C220.458 44.7248 221.451 44.4644 222.542 44.4644C224.218 44.4644 225.61 45.0177 226.716 46.1245C227.831 47.2313 228.389 48.6188 228.389 50.2871C228.389 52.0286 227.799 53.4691 226.619 54.6084C225.447 55.7396 223.958 56.3052 222.151 56.3052ZM219.27 53.1802C220.051 53.9614 221.003 54.3521 222.126 54.3521C223.25 54.3521 224.202 53.9655 224.983 53.1924C225.764 52.4193 226.155 51.4753 226.155 50.3604C226.155 49.2048 225.78 48.2567 225.032 47.5161C224.283 46.7674 223.327 46.3931 222.163 46.3931C220.999 46.3931 220.031 46.7633 219.258 47.5039C218.493 48.2445 218.11 49.1763 218.11 50.2993C218.11 51.4305 218.497 52.3908 219.27 53.1802ZM233.223 56H231.025V38.3853H241.719V40.3628H233.223V46.4175H241.023V48.3706H233.223V56ZM250.215 56.2197C249.303 56.2197 248.49 56.0122 247.773 55.5972C247.065 55.1821 246.504 54.6003 246.089 53.8516H246.04V56H244.014V38.3853H246.138V45.4287H246.187C246.585 44.6963 247.139 44.1226 247.847 43.7075C248.563 43.2925 249.364 43.085 250.251 43.085C251.855 43.085 253.149 43.6831 254.133 44.8794C255.118 46.0757 255.61 47.6667 255.61 49.6523C255.61 51.6462 255.118 53.2412 254.133 54.4375C253.149 55.6257 251.842 56.2197 250.215 56.2197ZM249.8 44.9526C248.717 44.9526 247.834 45.388 247.151 46.2588C246.467 47.1214 246.125 48.2526 246.125 49.6523C246.125 51.0602 246.467 52.1955 247.151 53.0581C247.834 53.9207 248.717 54.3521 249.8 54.3521C250.923 54.3521 251.81 53.9329 252.461 53.0947C253.112 52.2484 253.438 51.1009 253.438 49.6523C253.438 48.2119 253.112 47.0685 252.461 46.2222C251.81 45.3758 250.923 44.9526 249.8 44.9526ZM257.344 43.4634C257.344 41.9253 257.897 40.6476 259.004 39.6304C260.111 38.605 261.494 38.0923 263.154 38.0923C264.725 38.0923 266.056 38.5602 267.146 39.4961C268.236 40.432 268.782 41.5754 268.782 42.9263C268.782 43.9028 268.513 44.8428 267.976 45.7461C267.439 46.6494 266.43 47.866 264.949 49.396L260.493 53.998V54.0469H269.075V56H257.454V54.4863L263.655 47.9556C264.835 46.7104 265.616 45.7664 265.999 45.1235C266.389 44.4806 266.584 43.793 266.584 43.0605C266.584 42.2142 266.243 41.494 265.559 40.8999C264.884 40.3058 264.062 40.0088 263.093 40.0088C262.06 40.0088 261.197 40.3384 260.505 40.9976C259.814 41.6567 259.468 42.4787 259.468 43.4634V43.4756H257.344V43.4634ZM275.203 47.8701V46.0146H277.314C278.324 46.0146 279.15 45.7257 279.792 45.1479C280.435 44.562 280.757 43.8215 280.757 42.9263C280.757 42.0311 280.46 41.319 279.866 40.79C279.272 40.2611 278.429 39.9966 277.339 39.9966C276.33 39.9966 275.508 40.2651 274.873 40.8022C274.238 41.3394 273.872 42.0718 273.774 42.9995H271.663C271.785 41.5021 272.362 40.3099 273.396 39.4229C274.438 38.5358 275.785 38.0923 277.437 38.0923C279.023 38.0923 280.342 38.5195 281.392 39.374C282.441 40.2285 282.966 41.3149 282.966 42.6333C282.966 43.7319 282.641 44.6556 281.99 45.4043C281.339 46.153 280.46 46.625 279.353 46.8203V46.8691C280.688 46.9505 281.75 47.3778 282.539 48.1509C283.328 48.9159 283.723 49.9168 283.723 51.1538C283.723 52.1385 283.446 53.0256 282.893 53.8149C282.34 54.6043 281.591 55.2147 280.647 55.646C279.703 56.0773 278.657 56.293 277.51 56.293C275.687 56.293 274.218 55.8372 273.103 54.9258C271.988 54.0143 271.39 52.818 271.309 51.3369H273.42C273.518 52.2565 273.929 52.9971 274.653 53.5586C275.378 54.112 276.322 54.3887 277.485 54.3887C278.649 54.3887 279.605 54.0916 280.354 53.4976C281.111 52.9035 281.489 52.1466 281.489 51.2271C281.489 50.1935 281.123 49.3757 280.391 48.7734C279.666 48.1712 278.674 47.8701 277.412 47.8701H275.203ZM292.463 56.293C290.779 56.293 289.371 55.8169 288.24 54.8647C287.117 53.9126 286.51 52.6878 286.421 51.1904H288.582C288.679 52.1263 289.09 52.8913 289.814 53.4854C290.539 54.0713 291.43 54.3643 292.488 54.3643C293.684 54.3643 294.657 53.9899 295.405 53.2412C296.162 52.4925 296.541 51.5241 296.541 50.3359C296.541 49.1478 296.162 48.1753 295.405 47.4185C294.657 46.6535 293.696 46.271 292.524 46.271C291.702 46.271 290.958 46.446 290.291 46.7959C289.623 47.1458 289.111 47.63 288.752 48.2485H286.689L287.654 38.3853H297.737V40.3384H289.46L288.923 46.0757H288.972C289.371 45.5467 289.916 45.1317 290.608 44.8306C291.308 44.5295 292.077 44.3789 292.915 44.3789C294.608 44.3789 295.999 44.9364 297.09 46.0513C298.188 47.158 298.738 48.5659 298.738 50.2749C298.738 52.0409 298.152 53.4854 296.98 54.6084C295.808 55.7314 294.303 56.293 292.463 56.293ZM307.405 56.3052C306.086 56.3052 304.923 55.9634 303.914 55.2798C302.904 54.5881 302.127 53.6074 301.582 52.3379C301.004 51.0033 300.715 49.3879 300.715 47.4917C300.715 44.5213 301.313 42.2101 302.51 40.5581C303.714 38.9061 305.395 38.0801 307.551 38.0801C309.049 38.0801 310.326 38.4951 311.384 39.3252C312.442 40.1553 313.114 41.262 313.398 42.6455H311.165C310.929 41.848 310.481 41.2132 309.822 40.7412C309.163 40.2611 308.398 40.021 307.527 40.021C306.054 40.021 304.915 40.6517 304.109 41.9131C303.303 43.1745 302.88 44.9771 302.839 47.3208H302.876C303.275 46.4582 303.922 45.7664 304.817 45.2456C305.712 44.7248 306.705 44.4644 307.795 44.4644C309.472 44.4644 310.863 45.0177 311.97 46.1245C313.085 47.2313 313.643 48.6188 313.643 50.2871C313.643 52.0286 313.053 53.4691 311.873 54.6084C310.701 55.7396 309.211 56.3052 307.405 56.3052ZM304.524 53.1802C305.305 53.9614 306.257 54.3521 307.38 54.3521C308.503 54.3521 309.456 53.9655 310.237 53.1924C311.018 52.4193 311.409 51.4753 311.409 50.3604C311.409 49.2048 311.034 48.2567 310.286 47.5161C309.537 46.7674 308.581 46.3931 307.417 46.3931C306.253 46.3931 305.285 46.7633 304.512 47.5039C303.747 48.2445 303.364 49.1763 303.364 50.2993C303.364 51.4305 303.751 52.3908 304.524 53.1802ZM327.729 56L325.959 50.9585H318.953L317.183 56H314.875L321.37 38.3853H323.542L330.037 56H327.729ZM322.419 41.0586L319.6 49.0908H325.312L322.493 41.0586H322.419ZM335.286 56V40.7168H335.237L330.574 44.0737V41.7544L335.261 38.3853H337.41V56H335.286ZM347.932 56.293C346.069 56.293 344.539 55.821 343.342 54.877C342.146 53.9248 341.548 52.7122 341.548 51.2393C341.548 50.1406 341.894 49.1763 342.585 48.3462C343.277 47.5161 344.193 46.9709 345.332 46.7104V46.6616C344.38 46.3687 343.627 45.8722 343.074 45.1724C342.52 44.4644 342.244 43.6465 342.244 42.7188C342.244 41.3923 342.781 40.2896 343.855 39.4106C344.937 38.5317 346.296 38.0923 347.932 38.0923C349.576 38.0923 350.931 38.5317 351.997 39.4106C353.071 40.2814 353.608 41.3882 353.608 42.731C353.608 43.6506 353.336 44.4603 352.791 45.1602C352.245 45.86 351.493 46.3605 350.532 46.6616V46.7104C351.672 46.979 352.587 47.5283 353.279 48.3584C353.979 49.1885 354.329 50.1488 354.329 51.2393C354.329 52.7122 353.73 53.9248 352.534 54.877C351.338 55.821 349.804 56.293 347.932 56.293ZM347.932 54.3765C349.145 54.3765 350.138 54.0672 350.911 53.4487C351.692 52.8302 352.083 52.0409 352.083 51.0806C352.083 50.1121 351.692 49.3187 350.911 48.7002C350.138 48.0817 349.145 47.7725 347.932 47.7725C346.72 47.7725 345.723 48.0858 344.941 48.7124C344.168 49.3309 343.782 50.1203 343.782 51.0806C343.782 52.0409 344.172 52.8302 344.954 53.4487C345.735 54.0672 346.728 54.3765 347.932 54.3765ZM347.932 45.8438C348.958 45.8438 349.796 45.5711 350.447 45.0259C351.106 44.4806 351.436 43.7808 351.436 42.9263C351.436 42.0636 351.11 41.3597 350.459 40.8145C349.808 40.2611 348.966 39.9844 347.932 39.9844C346.899 39.9844 346.056 40.2611 345.405 40.8145C344.754 41.3597 344.429 42.0636 344.429 42.9263C344.429 43.7808 344.754 44.4806 345.405 45.0259C346.056 45.5711 346.899 45.8438 347.932 45.8438ZM357.881 56L365.852 40.3872V40.3384H356.367V38.3853H368.025V40.4238L360.188 56H357.881ZM376.46 56.293C374.417 56.293 372.822 55.4792 371.675 53.8516C370.535 52.2158 369.966 49.9941 369.966 47.1865C369.966 44.4033 370.54 42.1938 371.687 40.5581C372.843 38.9142 374.434 38.0923 376.46 38.0923C378.486 38.0923 380.069 38.9102 381.208 40.5459C382.356 42.1735 382.93 44.383 382.93 47.1743C382.93 49.9819 382.36 52.2036 381.221 53.8394C380.081 55.4751 378.494 56.293 376.46 56.293ZM373.298 52.4478C374.047 53.7336 375.101 54.3765 376.46 54.3765C377.819 54.3765 378.869 53.7376 379.609 52.46C380.35 51.1742 380.72 49.4163 380.72 47.1865C380.72 44.9893 380.346 43.2477 379.597 41.9619C378.848 40.668 377.803 40.021 376.46 40.021C375.117 40.021 374.067 40.668 373.311 41.9619C372.554 43.2559 372.175 44.9933 372.175 47.1743C372.175 49.4041 372.55 51.1619 373.298 52.4478ZM385.103 43.4634C385.103 41.9253 385.656 40.6476 386.763 39.6304C387.869 38.605 389.253 38.0923 390.913 38.0923C392.484 38.0923 393.814 38.5602 394.905 39.4961C395.995 40.432 396.541 41.5754 396.541 42.9263C396.541 43.9028 396.272 44.8428 395.735 45.7461C395.198 46.6494 394.189 47.866 392.708 49.396L388.252 53.998V54.0469H396.833V56H385.212V54.4863L391.414 47.9556C392.594 46.7104 393.375 45.7664 393.757 45.1235C394.148 44.4806 394.343 43.793 394.343 43.0605C394.343 42.2142 394.001 41.494 393.318 40.8999C392.642 40.3058 391.82 40.0088 390.852 40.0088C389.819 40.0088 388.956 40.3384 388.264 40.9976C387.572 41.6567 387.227 42.4787 387.227 43.4634V43.4756H385.103V43.4634ZM405.537 56.293C403.494 56.293 401.899 55.4792 400.752 53.8516C399.613 52.2158 399.043 49.9941 399.043 47.1865C399.043 44.4033 399.617 42.1938 400.764 40.5581C401.92 38.9142 403.511 38.0923 405.537 38.0923C407.563 38.0923 409.146 38.9102 410.286 40.5459C411.433 42.1735 412.007 44.383 412.007 47.1743C412.007 49.9819 411.437 52.2036 410.298 53.8394C409.159 55.4751 407.572 56.293 405.537 56.293ZM402.375 52.4478C403.124 53.7336 404.178 54.3765 405.537 54.3765C406.896 54.3765 407.946 53.7376 408.687 52.46C409.427 51.1742 409.797 49.4163 409.797 47.1865C409.797 44.9893 409.423 43.2477 408.674 41.9619C407.926 40.668 406.88 40.021 405.537 40.021C404.194 40.021 403.145 40.668 402.388 41.9619C401.631 43.2559 401.252 44.9933 401.252 47.1743C401.252 49.4041 401.627 51.1619 402.375 52.4478ZM419.575 44.9282C418.59 44.9282 417.773 45.27 417.122 45.9536C416.479 46.6291 416.125 47.4998 416.06 48.5659H422.957C422.932 47.4917 422.611 46.6169 421.992 45.9414C421.374 45.266 420.568 44.9282 419.575 44.9282ZM422.908 52.3623H424.995C424.808 53.4854 424.222 54.409 423.237 55.1333C422.261 55.8576 421.085 56.2197 419.709 56.2197C417.895 56.2197 416.466 55.6338 415.425 54.4619C414.383 53.29 413.862 51.7031 413.862 49.7012C413.862 47.7155 414.383 46.1164 415.425 44.9038C416.475 43.6912 417.87 43.085 419.612 43.085C421.321 43.085 422.672 43.6587 423.665 44.8062C424.657 45.9536 425.154 47.4917 425.154 49.4204V50.2261H416.047V50.3481C416.047 51.5688 416.381 52.5454 417.048 53.2778C417.716 54.0103 418.619 54.3765 419.758 54.3765C420.556 54.3765 421.235 54.1934 421.797 53.8271C422.358 53.4609 422.729 52.9727 422.908 52.3623ZM433.613 56.2197C432.702 56.2197 431.888 56.0122 431.172 55.5972C430.464 55.1821 429.902 54.6003 429.487 53.8516H429.438V56H427.412V38.3853H429.536V45.4287H429.585C429.984 44.6963 430.537 44.1226 431.245 43.7075C431.961 43.2925 432.763 43.085 433.65 43.085C435.253 43.085 436.547 43.6831 437.532 44.8794C438.516 46.0757 439.009 47.6667 439.009 49.6523C439.009 51.6462 438.516 53.2412 437.532 54.4375C436.547 55.6257 435.241 56.2197 433.613 56.2197ZM433.198 44.9526C432.116 44.9526 431.233 45.388 430.549 46.2588C429.866 47.1214 429.524 48.2526 429.524 49.6523C429.524 51.0602 429.866 52.1955 430.549 53.0581C431.233 53.9207 432.116 54.3521 433.198 54.3521C434.321 54.3521 435.208 53.9329 435.859 53.0947C436.51 52.2484 436.836 51.1009 436.836 49.6523C436.836 48.2119 436.51 47.0685 435.859 46.2222C435.208 45.3758 434.321 44.9526 433.198 44.9526ZM445.344 56V40.7168H445.295L440.632 44.0737V41.7544L445.32 38.3853H447.468V56H445.344ZM455.525 47.8701V46.0146H457.637C458.646 46.0146 459.472 45.7257 460.115 45.1479C460.758 44.562 461.079 43.8215 461.079 42.9263C461.079 42.0311 460.782 41.319 460.188 40.79C459.594 40.2611 458.752 39.9966 457.661 39.9966C456.652 39.9966 455.83 40.2651 455.195 40.8022C454.561 41.3394 454.194 42.0718 454.097 42.9995H451.985C452.107 41.5021 452.685 40.3099 453.718 39.4229C454.76 38.5358 456.107 38.0923 457.759 38.0923C459.346 38.0923 460.664 38.5195 461.714 39.374C462.764 40.2285 463.289 41.3149 463.289 42.6333C463.289 43.7319 462.963 44.6556 462.312 45.4043C461.661 46.153 460.782 46.625 459.675 46.8203V46.8691C461.01 46.9505 462.072 47.3778 462.861 48.1509C463.651 48.9159 464.045 49.9168 464.045 51.1538C464.045 52.1385 463.769 53.0256 463.215 53.8149C462.662 54.6043 461.913 55.2147 460.969 55.646C460.025 56.0773 458.979 56.293 457.832 56.293C456.009 56.293 454.54 55.8372 453.425 54.9258C452.31 54.0143 451.712 52.818 451.631 51.3369H453.743C453.84 52.2565 454.251 52.9971 454.976 53.5586C455.7 54.112 456.644 54.3887 457.808 54.3887C458.971 54.3887 459.928 54.0916 460.676 53.4976C461.433 52.9035 461.812 52.1466 461.812 51.2271C461.812 50.1935 461.445 49.3757 460.713 48.7734C459.989 48.1712 458.996 47.8701 457.734 47.8701H455.525ZM477.925 54.0225V56H467.012V38.3853H477.925V40.3628H469.209V46.0146H477.473V47.9678H469.209V54.0225H477.925ZM481.562 56L489.534 40.3872V40.3384H480.049V38.3853H491.707V40.4238L483.87 56H481.562ZM500.886 56V52.3379H492.036V50.3481C492.793 48.9403 493.753 47.333 494.917 45.5264C496.089 43.7197 497.704 41.3394 499.763 38.3853H503.01V50.4092H505.5V52.3379H503.01V56H500.886ZM494.209 50.3604V50.4092H500.886V40.2163H500.85C497.765 44.619 495.552 48.0003 494.209 50.3604ZM507.539 43.4634C507.539 41.9253 508.092 40.6476 509.199 39.6304C510.306 38.605 511.689 38.0923 513.35 38.0923C514.92 38.0923 516.251 38.5602 517.341 39.4961C518.432 40.432 518.977 41.5754 518.977 42.9263C518.977 43.9028 518.708 44.8428 518.171 45.7461C517.634 46.6494 516.625 47.866 515.144 49.396L510.688 53.998V54.0469H519.27V56H507.649V54.4863L513.85 47.9556C515.03 46.7104 515.811 45.7664 516.194 45.1235C516.584 44.4806 516.78 43.793 516.78 43.0605C516.78 42.2142 516.438 41.494 515.754 40.8999C515.079 40.3058 514.257 40.0088 513.289 40.0088C512.255 40.0088 511.392 40.3384 510.701 40.9976C510.009 41.6567 509.663 42.4787 509.663 43.4634V43.4756H507.539V43.4634ZM522.822 56L530.793 40.3872V40.3384H521.309V38.3853H532.966V40.4238L525.129 56H522.822ZM541.084 56.293C539.587 56.293 538.305 55.8779 537.239 55.0479C536.173 54.2178 535.505 53.111 535.237 51.7275H537.471C537.707 52.5251 538.154 53.168 538.813 53.6562C539.473 54.1364 540.238 54.3765 541.108 54.3765C542.573 54.3765 543.708 53.7417 544.514 52.4722C545.328 51.1945 545.751 49.3838 545.784 47.04H545.771H545.747C545.373 47.9108 544.738 48.6107 543.843 49.1396C542.956 49.6605 541.951 49.9209 540.828 49.9209C539.151 49.9209 537.756 49.3675 536.641 48.2607C535.534 47.154 534.98 45.7664 534.98 44.0981C534.98 42.3566 535.566 40.9202 536.738 39.7891C537.918 38.6497 539.412 38.0801 541.218 38.0801C542.545 38.0801 543.713 38.4259 544.722 39.1177C545.731 39.8013 546.504 40.7738 547.041 42.0352C547.619 43.3698 547.908 44.9893 547.908 46.8936C547.908 49.8639 547.31 52.1751 546.113 53.8271C544.917 55.471 543.241 56.293 541.084 56.293ZM541.206 47.9922C542.37 47.9922 543.338 47.6219 544.111 46.8813C544.884 46.1408 545.271 45.209 545.271 44.0859C545.271 42.9548 544.88 42.0026 544.099 41.2295C543.326 40.4482 542.374 40.0576 541.243 40.0576C540.111 40.0576 539.155 40.4442 538.374 41.2173C537.593 41.9823 537.202 42.9181 537.202 44.0249C537.202 45.1724 537.581 46.1204 538.337 46.8691C539.094 47.6178 540.05 47.9922 541.206 47.9922ZM550.093 43.4634C550.093 41.9253 550.646 40.6476 551.753 39.6304C552.86 38.605 554.243 38.0923 555.903 38.0923C557.474 38.0923 558.805 38.5602 559.895 39.4961C560.986 40.432 561.531 41.5754 561.531 42.9263C561.531 43.9028 561.262 44.8428 560.725 45.7461C560.188 46.6494 559.179 47.866 557.698 49.396L553.242 53.998V54.0469H561.824V56H550.203V54.4863L556.404 47.9556C557.584 46.7104 558.365 45.7664 558.748 45.1235C559.138 44.4806 559.333 43.793 559.333 43.0605C559.333 42.2142 558.992 41.494 558.308 40.8999C557.633 40.3058 556.811 40.0088 555.842 40.0088C554.809 40.0088 553.946 40.3384 553.254 40.9976C552.563 41.6567 552.217 42.4787 552.217 43.4634V43.4756H550.093V43.4634ZM566.841 56H564.644V38.3853H575.337V40.3628H566.841V46.4175H574.641V48.3706H566.841V56ZM581.843 56.2197C580.216 56.2197 578.901 55.6216 577.9 54.4253C576.908 53.229 576.411 51.638 576.411 49.6523C576.411 47.6748 576.908 46.0879 577.9 44.8916C578.893 43.6872 580.191 43.085 581.794 43.085C582.69 43.085 583.491 43.2884 584.199 43.6953C584.907 44.1022 585.452 44.6597 585.835 45.3677H585.884V38.3853H588.008V56H585.981V53.8516H585.945C585.53 54.5921 584.968 55.174 584.26 55.5972C583.552 56.0122 582.747 56.2197 581.843 56.2197ZM582.246 44.9526C581.123 44.9526 580.232 45.3799 579.573 46.2344C578.914 47.0807 578.584 48.2201 578.584 49.6523C578.584 51.0928 578.914 52.2362 579.573 53.0825C580.232 53.9289 581.123 54.3521 582.246 54.3521C583.345 54.3521 584.228 53.9248 584.895 53.0703C585.562 52.2077 585.896 51.0684 585.896 49.6523C585.896 48.2363 585.558 47.1011 584.883 46.2466C584.215 45.384 583.337 44.9526 582.246 44.9526ZM601.423 47.4673H599.348C599.185 46.7349 598.823 46.1326 598.262 45.6606C597.708 45.1886 596.988 44.9526 596.101 44.9526C594.994 44.9526 594.103 45.3799 593.428 46.2344C592.752 47.0807 592.415 48.2201 592.415 49.6523C592.415 51.109 592.752 52.2565 593.428 53.0947C594.111 53.9329 595.011 54.3521 596.125 54.3521C596.98 54.3521 597.684 54.1405 598.237 53.7173C598.799 53.286 599.173 52.6838 599.36 51.9106H601.448C601.285 53.1802 600.711 54.2178 599.727 55.0234C598.75 55.821 597.546 56.2197 596.113 56.2197C594.339 56.2197 592.919 55.6338 591.853 54.4619C590.787 53.2819 590.254 51.6787 590.254 49.6523C590.254 47.6585 590.787 46.0675 591.853 44.8794C592.919 43.6831 594.331 43.085 596.089 43.085C597.603 43.085 598.831 43.5122 599.775 44.3667C600.728 45.2212 601.277 46.2547 601.423 47.4673ZM613.948 47.4673H611.873C611.71 46.7349 611.348 46.1326 610.786 45.6606C610.233 45.1886 609.513 44.9526 608.625 44.9526C607.519 44.9526 606.628 45.3799 605.952 46.2344C605.277 47.0807 604.939 48.2201 604.939 49.6523C604.939 51.109 605.277 52.2565 605.952 53.0947C606.636 53.9329 607.535 54.3521 608.65 54.3521C609.504 54.3521 610.208 54.1405 610.762 53.7173C611.323 53.286 611.698 52.6838 611.885 51.9106H613.972C613.809 53.1802 613.236 54.2178 612.251 55.0234C611.274 55.821 610.07 56.2197 608.638 56.2197C606.864 56.2197 605.444 55.6338 604.377 54.4619C603.311 53.2819 602.778 51.6787 602.778 49.6523C602.778 47.6585 603.311 46.0675 604.377 44.8794C605.444 43.6831 606.855 43.085 608.613 43.085C610.127 43.085 611.356 43.5122 612.3 44.3667C613.252 45.2212 613.801 46.2547 613.948 47.4673Z" fill="white" fill-opacity="0.4"/>
</svg>
